<svg width="765" height="776" viewBox="0 0 765 776" fill="none" xmlns="http://www.w3.org/2000/svg">
<path fill-rule="evenodd" clip-rule="evenodd" d="M348.692 1.13787C338.487 1.96563 313.326 5.77476 301.708 8.25069C279.25 13.0348 234.25 27.4292 234.256 29.8272C234.258 30.6322 254.174 77.8509 254.757 78.4306C254.933 78.6052 259.3 77.1214 264.463 75.1329C285.288 67.1115 317.159 59.2123 339.316 56.5809C344.539 55.9603 350.726 55.2055 353.062 54.9033L357.311 54.3528L357.365 78.8427L357.42 103.332L351.672 103.984C286.222 111.41 227.123 139.827 181.567 185.778C164.866 202.623 155.374 213.884 146.66 227.189C145.309 229.251 143.908 230.941 143.547 230.946C142.673 230.957 105.511 208.188 103.885 206.645C101.147 204.049 123.22 175.485 145.158 153.237L161.249 136.919L143.774 116.948C129.402 100.524 125.999 97.1408 124.604 97.8949C122.554 99.0045 93.979 128.256 86.9931 136.397C76.6311 148.472 58.6563 173.688 49.9201 188.407C29.5087 222.79 16.6287 253.747 6.78719 292.073C3.08334 306.494 -0.615135 325.113 0.0953086 325.759C0.271667 325.92 11.4456 328.124 24.9263 330.656C38.407 333.189 50.2241 335.492 51.1878 335.775C52.3565 336.119 52.9377 335.742 52.9353 334.644C52.9249 330.001 60.6191 297.812 64.7698 285.129C70.9468 266.257 77.7154 249.929 79.2072 250.301C79.8536 250.462 89.4063 256.148 100.436 262.935L120.49 275.277L118.762 278.894C113.027 290.902 104.894 319.435 101.475 339.547C95.1552 376.723 96.2442 413.911 104.764 451.852C107.664 464.769 115.582 489.045 120.312 499.527C121.991 503.245 123.242 506.399 123.092 506.536C121.58 507.921 80.8166 528.871 80.2778 528.539C78.8018 527.632 69.2323 503.681 64.8376 489.899C60.1468 475.186 54.8206 453.613 53.6041 444.404C53.2226 441.517 52.4454 439.157 51.8774 439.158C50.4324 439.161 3.04834 447.266 1.07463 447.847C-0.3994 448.283 -0.382465 449.15 1.27538 458.045C16.4177 539.296 55.3256 610.528 116.677 669.313C128.142 680.298 131.282 682.816 132.221 681.778C134.155 679.638 163.02 645.548 164.444 643.721C165.607 642.229 163.81 640.098 148.868 625.257C132.735 609.233 117.491 591.47 108.759 578.516L104.71 572.51L125.935 561.228C137.608 555.023 147.404 549.945 147.703 549.945C148.001 549.944 149.949 552.303 152.03 555.185C165.282 573.536 189.232 598.34 206.913 612.026C229.861 629.787 260.649 646.753 286.653 655.964C307.74 663.435 336.7 669.717 359.188 671.702L362.188 671.966L362.511 696.216L362.833 720.465L360.565 720.469C355.161 720.478 330.239 717.212 318.429 714.946C303.455 712.075 282.863 706.328 267.303 700.679C261.276 698.492 256.003 697.044 255.586 697.463C255.168 697.883 250.787 708.131 245.851 720.236C240.914 732.342 236.409 743.046 235.84 744.023C234.578 746.19 237.535 747.584 258.373 754.65C289.854 765.325 325.964 772.499 355.603 773.971C361.551 774.266 369.793 774.703 373.918 774.941C384.332 775.544 417.262 773.774 432.624 771.785C460.294 768.202 492.379 760.251 517.897 750.653C524.749 748.077 530.646 745.658 531.003 745.279C531.361 744.899 527.192 733.799 521.74 720.611C516.289 707.423 511.688 696.274 511.518 695.835C511.347 695.396 508.743 696.131 505.73 697.467C485.777 706.319 451.06 715.207 423.026 718.643L411.762 720.023L411.974 695.48L412.186 670.939L422.183 669.665C462.869 664.482 507.866 647.126 542.497 623.261C569.061 604.954 593.923 580.951 612.43 555.744C613.252 554.623 614.861 552.552 616.004 551.143L618.083 548.579L638.018 557.803C648.984 562.876 658.939 567.538 660.143 568.163C662.327 569.296 662.325 569.303 658.658 574.839C647.345 591.911 634.104 607.606 615.508 625.988L601.732 639.605L618.336 659.982C627.468 671.189 635.287 680.49 635.711 680.652C637.34 681.273 674.729 642.623 684.956 629.746C715.65 591.103 738.294 548.788 752.195 504.096C759.529 480.519 766.552 447.394 764.581 445.675C763.669 444.881 713.148 436.313 712.701 436.877C712.566 437.046 711.908 440.786 711.236 445.187C709.554 456.226 703.158 481.275 698.683 494.352C693.625 509.137 686.777 525.283 685.661 525.059C684.934 524.912 643.446 505.954 642.594 505.378C642.47 505.295 644.536 499.847 647.185 493.273C660.984 459.017 667.345 425.277 667.259 386.785C667.184 353.087 662.97 327.613 651.962 294.319C650.327 289.373 648.113 283.303 647.044 280.83L645.098 276.334L665.623 262.574C676.911 255.004 686.246 248.909 686.365 249.027C687.082 249.743 696.121 272.771 698.802 280.715C702.744 292.396 709.527 318.392 710.484 325.488C710.873 328.372 711.561 330.959 712.012 331.236C712.74 331.685 763.834 323.986 764.48 323.331C765.004 322.8 760.939 302.722 757.85 290.583C744.072 236.443 717.901 185.336 680.613 139.755C671.107 128.135 636.925 93.4932 635.486 94.0214C634.983 94.2065 626.446 103.023 616.515 113.614L598.457 132.869L603.228 137.143C624.733 156.403 642.665 176.621 657.92 198.806L662.382 205.296L642.556 218.59C631.651 225.901 622.322 231.885 621.825 231.886C621.328 231.887 620.684 231.275 620.394 230.525C619.545 228.323 609.759 215.096 602.2 205.93C595.468 197.767 576.394 178.221 568.071 170.958C527.238 135.319 471.66 110.925 416.172 104.287L406.42 103.119L406.365 78.7084L406.311 54.2975L411.562 54.8908C447.904 58.9967 472.643 64.6676 500.696 75.323C507.822 78.0291 514.011 79.8793 514.45 79.4333C515.196 78.6747 536.263 32.5196 536.261 31.6466C536.259 30.8126 509.191 20.8319 495.727 16.7009C477.564 11.1284 457.776 6.69657 437.198 3.59346C422.424 1.36641 417.178 1.08511 387.192 0.917993C368.766 0.816091 351.442 0.914735 348.692 1.13787ZM406.095 147.43C479.243 154.383 545.947 195.4 585.854 257.966C603.037 284.906 615.139 316.443 620.36 347.89C621.898 357.147 622.363 361.654 623.532 378.633L624.1 386.882L382.458 387.421L140.815 387.96L141.466 377.208C144.669 324.271 160.426 281.331 192.041 239.385C199.168 229.929 221.145 207.534 231.134 199.548C243.739 189.469 260.19 179.001 274.746 171.792C302.534 158.031 325.694 151.409 361.018 147.125C367.98 146.28 395.995 146.47 406.095 147.43ZM264.19 224.335C241.581 227.994 223.226 241.058 213.85 260.165C208.855 270.344 206.845 278.883 206.851 289.902C206.863 315.241 220.65 337.183 243.466 348.176C254.607 353.545 260.931 355.034 272.481 355.008C283.21 354.984 290.05 353.495 299.468 349.132C323.215 338.132 337.858 315.359 337.8 289.52C337.734 259.878 317.463 233.472 289.159 226.159C282.822 224.522 269.187 223.526 264.19 224.335ZM483.671 228.123C467.078 230.442 450.641 240.151 439.98 253.932C435.352 259.915 430.015 271.779 428.325 279.847C421.087 314.397 443.235 348.928 477.987 357.274C485.624 359.108 501.107 358.889 508.758 356.837C528.019 351.67 542.907 339.393 551.335 321.725C556.577 310.734 557.87 304.966 557.843 292.69C557.801 273.845 550.017 256.552 535.881 243.9C529.894 238.541 517.245 231.755 509.531 229.765C502.339 227.908 490.561 227.161 483.671 228.123ZM378.575 325.533C373.221 326.804 366.67 331.806 363.851 336.775C360.662 342.395 360.585 352.152 363.683 357.962C372.42 374.346 395.68 374.372 404.239 358.008C406.946 352.833 407.213 342.397 404.755 337.871C401.841 332.504 395.846 327.446 390.554 325.887C384.995 324.25 384.091 324.224 378.575 325.533ZM194.272 485.541C194.337 514.525 194.029 537.814 193.588 537.292C186.205 528.565 176.88 514.349 169.058 499.897C160.5 484.084 152.495 462.623 147.721 442.694L145.387 432.949L169.771 432.895L194.155 432.841L194.272 485.541ZM294.354 522.184L294.554 611.752L292.303 611.108C286.671 609.499 260.983 596.092 251.255 589.685L240.489 582.595L240.322 507.667L240.155 432.738L267.154 432.678L294.154 432.618L294.354 522.184ZM429.368 528.191L429.582 624.065L418.836 625.81C399.09 629.017 362.67 629.03 346.515 625.837L343.584 625.258L343.369 528.883L343.154 432.508L386.154 432.412L429.154 432.316L429.368 528.191ZM531.315 504.531L531.477 576.972L525.244 581.794C516.925 588.231 500.349 598.21 487.903 604.275C482.335 606.988 477.578 609.209 477.331 609.209C477.085 609.21 476.8 569.385 476.697 520.711L476.51 432.211L503.832 432.15L531.154 432.089L531.315 504.531ZM619.157 433.35C619.159 434.151 617.637 440.792 615.777 448.107C609.407 473.145 597.806 499.099 583.099 521.223C578.796 527.695 575.074 532.991 574.828 532.992C574.581 532.992 574.328 510.268 574.266 482.493L574.154 431.993L596.654 431.943C615.692 431.9 619.154 432.117 619.157 433.35Z" fill="black"/>
</svg>


